#!OML:ASF F:\VICON\USERDATA\INSTALL\rory3\rory3.ASF
:FULLY-SPECIFIED
:DEGREES
55
root 0.5691473028851535 17.848487099766576 21.12986299826564 -2.0527394803083387 -0.045078857492622415 2.519287925971536
lfemur 7.372437458800915 -2.0440065464351407 -27.164684860318026
ltibia 17.054686169042817
lfoot -9.080799496162989 -0.9719662297918117
ltoes -2.2800219583796912
rfemur -25.998908847873878 3.35440644942907 17.95798216175119
rtibia 34.139119628217536
rfoot -5.597078999456684 -8.722045998865424
rtoes 2.8391914959751685
lowerback 10.304039527605168 -0.4744492423091911 -2.354140439416719
upperback 0.4879223889221663 -0.4767618565532963 0.9433386739862484
thorax -4.80848065072705 -0.10031109661805021 2.347225629727041
lowerneck -16.255026120634053 -2.913998435849487 -2.0108507089429173
upperneck 21.340974111395496 -3.733962802236069 0.5695185217658489
head 9.350592014326503 -1.7940219442509442 0.19467067612635414
lclavicle -4.532846856075343e-16 -7.76420546916685e-16
lhumerus -25.604229891031174 -0.41857636018595734 79.09469001735674
lradius 27.667531106458835
lwrist 7.749850381357821
lhand -27.743536356968445 21.784669138374472
lfingers 7.12502
lthumb -0.5463989541469154 53.68238250313649
rclavicle -4.541517425984946e-16 -7.7709069454786205e-16
rhumerus -32.07733317197728 -20.39523906819845 -78.17978030673417
rradius 26.474476264273758
rwrist 4.224520013815547
rhand -18.27612986899131 22.575362642875366
rfingers 7.12502
rthumb 8.08808279909638 -7.168299706470752
56
root 0.5068480525077608 17.812900809514357 21.76306742853264 -1.507556669265829 0.5922295640929827 2.7065202499551475
lfemur 10.930359582033615 -2.460270330321566 -27.27255581229759
ltibia 15.276082908437115
lfoot -8.993967380619537 -1.8553952119704038
ltoes -2.7600166176257352
rfemur -25.71673003324958 4.621509979068172 17.278992269586283
rtibia 31.99923840039178
rfoot -6.351469030535888 -8.584358243349126
rtoes 3.1559440041114226
lowerback 10.092252423603659 -0.5687609606524549 -2.5139791238428346
upperback 0.47486662796314044 -0.7126164910465533 0.9856634775460003
thorax -4.704131682076672 -0.19632484178966159 2.5676337051146145
lowerneck -16.19498244606518 -2.934168661166143 -1.9836587069124707
upperneck 21.24169138717366 -3.7707594164481195 0.7295457560206616
head 9.331223445282834 -1.8131621777314217 0.21019189313858921
lclavicle -4.532846852776692e-16 -7.764205466617325e-16
lhumerus -24.2079102668791 -1.454275050319624 79.04021668083446
lradius 27.6019829598679
lwrist 8.016308526372002
lhand -27.591124339642928 22.18593572330868
lfingers 7.12502
lthumb -0.4737728328563393 53.987178446346654
rclavicle -4.541517423683944e-16 -7.770906943700179e-16
rhumerus -33.00312078519982 -21.72366592139428 -77.32980345159933
rradius 25.675505308921014
rwrist 4.363462657510978
rhand -18.297987122956624 22.530361949068045
rfingers 7.12502
rthumb 8.084799665519451 -7.147196464334689
57
root 0.43465185770739084 17.77127527083713 22.595498355139355 -1.2082212900301625 1.0158709567408866 2.724884260439369
lfemur 13.0710819424496 -3.5003551928992365 -27.25292156063928
ltibia 15.649586407251558
lfoot -8.437345311582623 -2.34871464550708
ltoes -3.262159709644334
rfemur -25.714496224010276 4.390440351824436 17.867599523956915
rtibia 31.246667570500062
rfoot -6.929986804289365 -7.914902929206629
rtoes 3.7383676116135818
lowerback 9.855910142632668 -0.6453864129576963 -2.5986481360231117
upperback 0.4524889449680862 -0.8894300854591337 1.0389349548417963
thorax -4.660241535540007 -0.2933363012945043 2.6091941477760097
lowerneck -16.161286042190497 -2.9516185685845064 -1.9600292739879104
upperneck 21.143993738247108 -3.7920679818204266 0.8295447605740531
head 9.313336010708792 -1.8252673264679469 0.22175998799617053
lclavicle -4.532846852605236e-16 -7.764205466484808e-16
lhumerus -23.237115341256686 -2.0195987048875255 79.01078223306756
lradius 27.28428753622481
lwrist 8.024855633652216
lhand -27.66443921826638 21.916443234552197
lfingers 7.12502
lthumb -0.7124111223416096 53.37031124800442
rclavicle -4.541517423295941e-16 -7.7709069434002915e-16
rhumerus -34.001937813622575 -23.38695214685647 -76.24401618488987
rradius 24.87896350920542
rwrist 4.586244799439941
rhand -18.30498106895043 22.531085646269588
rfingers 7.12502
rthumb 8.04919919289256 -7.191965189898667
58
root 0.34796074277307565 17.736862865628833 23.214277236293565 -1.2024535862116457 1.1229067947867444 2.354562758859128
lfemur 14.59647905555668 -4.876981569530837 -26.821535119400988
ltibia 17.535435871253938
lfoot -7.811239606549899 -2.8827251888766936
ltoes -3.3037399813658257
rfemur -25.865705828621245 3.3114944547568292 19.380079132768962
rtibia 31.773846911102517
rfoot -7.297471017857266 -7.1138860919730424
rtoes 3.81070772985988
lowerback 9.639434460600867 -0.6855503034750432 -2.4665949769234494
upperback 0.42908934076842475 -0.9780426291702629 1.1277782189859051
thorax -4.622414014203839 -0.32423910892798913 2.664080820409618
lowerneck -16.171869760072777 -2.9760943363245396 -1.9699547562142745
upperneck 21.094766880360638 -3.7730046671196207 0.9403622246141601
head 9.305927856713348 -1.8194448741247846 0.23925319406142537
lclavicle -4.532846850941166e-16 -7.764205465198649e-16
lhumerus -22.49077100558789 -1.8497289884081516 79.12386271841679
lradius 26.737405497293615
lwrist 7.980663790488956
lhand -27.570036971352135 22.21262645734556
lfingers 7.12502
lthumb -0.44535207067592375 54.15842266803193
rclavicle -4.54151742421201e-16 -7.77090694410832e-16
rhumerus -35.15809883372759 -25.36337917397148 -74.87508937312086
rradius 24.17887338206291
rwrist 4.7734239009407515
rhand -18.305191034406807 22.546108638735028
rfingers 7.12502
rthumb 8.025594333005929 -7.240356849375087
